<svg width="124.99999999999999" height="37" xmlns="http://www.w3.org/2000/svg">

 <g>
  <title>background</title>
  <rect fill="none" id="canvas_background" height="39" width="127" y="-1" x="-1"/>
 </g>
 <g>
  <title>Layer 1</title>
  <path id="svg_1" fill="#0F52FF" d="m17.99397,0.19277c-2.2981,0 -4.5738,0.4527 -6.697,1.3321c-2.1232,0.8795 -4.0523,2.1685 -5.6774,3.7935c-1.625,1.6251 -2.914,3.5542 -3.7935,5.6774c-0.8794,2.1232 -1.3321,4.3989 -1.3321,6.697c0,2.2981 0.4527,4.5738 1.3321,6.697c0.8795,2.1232 2.1685,4.0523 3.7935,5.6774c1.6251,1.625 3.5542,2.914 5.6774,3.7935c2.1232,0.8794 4.3989,1.3321 6.697,1.3321l0,-8.75c-1.1491,0 -2.2869,-0.2263 -3.3485,-0.6661c-1.0616,-0.4397 -2.0262,-1.0842 -2.8387,-1.8967c-0.8125,-0.8125 -1.457,-1.7771 -1.8967,-2.8387c-0.4398,-1.0616 -0.6661,-2.1994 -0.6661,-3.3485c0,-1.1491 0.2263,-2.2869 0.6661,-3.3485c0.4397,-1.0616 1.0842,-2.0262 1.8967,-2.8387c0.8125,-0.8125 1.7771,-1.457 2.8387,-1.8967c1.0616,-0.4398 2.1994,-0.6661 3.3485,-0.6661l0,-8.75z"/>
  <circle id="svg_2" fill="#0F52FF" r="5.83333" cy="17.69277" cx="17.99407"/>
  <path id="svg_3" fill="#5BD0F4" d="m0.49397,17.69277c0,2.2981 0.4527,4.5738 1.3321,6.697c0.8795,2.1232 2.1685,4.0523 3.7935,5.6774c1.6251,1.625 3.5542,2.914 5.6774,3.7935c2.1232,0.8794 4.3989,1.3321 6.697,1.3321c2.2981,0 4.5738,-0.4527 6.697,-1.3321c2.1232,-0.8795 4.0523,-2.1685 5.6774,-3.7935c1.625,-1.6251 2.914,-3.5542 3.7935,-5.6774c0.8794,-2.1232 1.3321,-4.3989 1.3321,-6.697l-8.75,0c0,1.1491 -0.2263,2.2869 -0.6661,3.3485c-0.4397,1.0616 -1.0842,2.0262 -1.8967,2.8387c-0.8125,0.8125 -1.7771,1.457 -2.8387,1.8967c-1.0616,0.4398 -2.1994,0.6661 -3.3485,0.6661c-1.1491,0 -2.2869,-0.2263 -3.3485,-0.6661c-1.0616,-0.4397 -2.0262,-1.0842 -2.8387,-1.8967c-0.8125,-0.8125 -1.457,-1.7771 -1.8967,-2.8387c-0.4398,-1.0616 -0.6661,-2.1994 -0.6661,-3.3485l-8.75,0z"/>
  <path id="svg_4" fill="#5BD0F4" d="m23.82737,17.69277c0,-1.5471 -0.6146,-3.0308 -1.7085,-4.1248c-1.094,-1.094 -2.5777,-1.7086 -4.1248,-1.7086c-1.5471,0 -3.0308,0.6146 -4.1248,1.7086c-1.094,1.094 -1.7086,2.5777 -1.7086,4.1248l5.8334,0l5.8333,0z"/>
  <path id="svg_5" fill="#0F52FF" d="m44.63357,11.11777l-2.1735,0l0,12.075l2.1735,0l0,-12.075z"/>
  <path id="svg_6" fill="#0F52FF" d="m46.05287,18.91477c0,2.7945 1.932,4.5195 4.485,4.5195c2.553,0 4.485,-1.725 4.485,-4.5195c0,-2.7945 -1.932,-4.5195 -4.485,-4.5195c-2.553,0 -4.485,1.725 -4.485,4.5195zm2.1735,0c0,-1.656 0.966,-2.622 2.3115,-2.622c1.3455,0 2.3115,0.966 2.3115,2.622c0,1.656 -0.966,2.622 -2.3115,2.622c-1.3455,0 -2.3115,-0.966 -2.3115,-2.622z"/>
  <path id="svg_7" fill="#0F52FF" d="m62.78997,14.63677l0,1.1557l-0.1725,0c-0.5175,-0.7417 -1.3455,-1.3972 -2.829,-1.3972c-2.0355,0 -3.864,1.725 -3.864,4.3815c0,2.6565 1.8285,4.3815 3.864,4.3815c1.4835,0 2.3115,-0.6728 2.7945,-1.3455l0.1725,0l0,0.828c0,1.656 -0.966,2.415 -2.3805,2.415c-1.4145,0 -2.139,-0.759 -2.4323,-1.7423l-1.9492,0.8453c0.4485,1.2937 1.7595,2.7255 4.416,2.7255c2.7255,0 4.5195,-1.4318 4.5195,-4.1918l0,-8.0557l-2.139,0zm-2.346,6.6585c-1.3455,0 -2.346,-0.966 -2.346,-2.5185c0,-1.5525 1.0005,-2.5185 2.346,-2.5185c1.3455,0 2.346,0.966 2.346,2.5185c0,1.5525 -1.0005,2.5185 -2.346,2.5185z"/>
  <path id="svg_8" fill="#0F52FF" d="m66.33507,18.91477c0,2.7945 1.932,4.5195 4.485,4.5195c2.553,0 4.4849,-1.725 4.4849,-4.5195c0,-2.7945 -1.9319,-4.5195 -4.4849,-4.5195c-2.553,0 -4.485,1.725 -4.485,4.5195zm2.1735,0c0,-1.656 0.966,-2.622 2.3115,-2.622c1.3455,0 2.3115,0.966 2.3115,2.622c0,1.656 -0.966,2.622 -2.3115,2.622c-1.3455,0 -2.3115,-0.966 -2.3115,-2.622z"/>
  <path id="svg_9" fill="#5BD0F4" d="m77.01097,12.15277c0,0.8798 0.673,1.4835 1.536,1.4835c0.862,0 1.535,-0.6037 1.535,-1.4835c0,-0.8797 -0.673,-1.4835 -1.535,-1.4835c-0.863,0 -1.536,0.6038 -1.536,1.4835zm2.622,2.484l-2.173,0l0,8.556l2.173,0l0,-8.556z"/>
  <path id="svg_10" fill="#5BD0F4" d="m81.56997,26.64277l2.174,0l0,-4.554l0.172,0c0.483,0.69 1.311,1.3455 2.795,1.3455c2.035,0 3.864,-1.725 3.864,-4.5195c0,-2.7945 -1.829,-4.5195 -3.864,-4.5195c-1.484,0 -2.312,0.6555 -2.829,1.3973l-0.173,0l0,-1.1558l-2.139,0l0,12.006zm4.485,-5.0715c-1.345,0 -2.346,-0.966 -2.346,-2.6565c0,-1.6905 1.001,-2.6565 2.346,-2.6565c1.346,0 2.346,0.966 2.346,2.6565c0,1.6905 -1,2.6565 -2.346,2.6565z"/>
  <path id="svg_11" fill="#5BD0F4" d="m91.84297,17.03457c0,1.6905 1.414,2.3115 3.208,2.6565l0.449,0.0862c1.069,0.207 1.552,0.4658 1.552,1.0178c0,0.552 -0.483,0.9832 -1.483,0.9832c-1.001,0 -1.811,-0.414 -2.036,-1.656l-2.001,0.5175c0.294,1.794 1.794,2.7945 4.037,2.7945c2.173,0 3.588,-1.0177 3.588,-2.8117c0,-1.7941 -1.449,-2.277 -3.381,-2.6565l-0.449,-0.0863c-0.897,-0.1725 -1.38,-0.414 -1.38,-0.9832c0,-0.5175 0.449,-0.8453 1.277,-0.8453c0.828,0 1.414,0.345 1.621,1.2765l1.967,-0.6037c-0.414,-1.38 -1.673,-2.3288 -3.588,-2.3288c-2.036,0 -3.381,0.9488 -3.381,2.6393z"/>
  <path id="svg_12" fill="#5BD0F4" d="m108.91997,23.19277l0,-8.556l-2.173,0l0,4.416c0,1.587 -0.776,2.5185 -2.105,2.5185c-1.173,0 -1.828,-0.6382 -1.828,-1.932l0,-5.0025l-2.174,0l0,5.106c0,2.1218 1.329,3.588 3.33,3.588c1.569,0 2.294,-0.69 2.639,-1.4145l0.172,0l0,1.2765l2.139,0z"/>
  <path id="svg_13" fill="#5BD0F4" d="m110.84797,14.63677l0,8.556l2.174,0l0,-5.106c0,-1.173 0.552,-1.8285 1.552,-1.8285c0.863,0 1.38,0.483 1.38,1.4145l0,5.52l2.174,0l0,-5.106c0,-1.173 0.552,-1.8285 1.552,-1.8285c0.863,0 1.38,0.483 1.38,1.4145l0,5.52l2.174,0l0,-5.6235c0,-2.07 -1.277,-3.0705 -2.864,-3.0705c-1.397,0 -2.035,0.621 -2.449,1.3455l-0.173,0c-0.397,-0.8107 -1.104,-1.3455 -2.346,-1.3455c-1.242,0 -1.915,0.552 -2.242,1.2075l-0.173,0l0,-1.0695l-2.139,0z"/>
 </g>
</svg>